<svg xmlns="http://www.w3.org/2000/svg" id="olymp-weather-partly-sunny-icon" viewBox="0 0 512 512">
    <path d="m256 444l32 0 0 32-32 0z m126-114c0-47-41-86-92-87-25-29-63-47-105-47-71 0-129 51-134 115-30 15-51 44-51 77 0 49 43 88 96 88l128 0 0-32-128 0c-35 0-64-25-64-56 0-20 13-38 33-48l17-8 1-19c3-48 48-85 102-85 32 0 61 13 81 36l9 10 14 1c34 1 61 25 61 55l0 22 21 8c18 7 30 23 30 40 0 36-27 44-51 44l-30 0 0 32 30 0c46 0 83-25 83-76 0-31-21-58-51-70z m-86-198c-53 0-98 34-114 82l33 5c13-32 44-55 81-55 49 0 88 39 88 88 0 22-8 42-21 57l5 7c0 0 6 13 11 22 23-21 37-52 37-86 0-66-54-120-120-120z m0-96c-9 0-16 7-16 16l0 48c0 9 7 16 16 16 9 0 16-7 16-16l0-48c0-9-7-16-16-16z m200 200l-48 0c-9 0-16 7-16 16 0 9 7 16 16 16l48 0c9 0 16-7 16-16 0-9-7-16-16-16z m-47-137c-7-6-17-6-23 0l-34 34c-6 6-6 17 0 23 6 6 17 6 23 0l34-34c6-6 6-16 0-23z m-283 0c-6-6-16-6-23 0-6 7-6 17 0 23l34 34c6 6 17 6 23 0 6-6 6-17 0-23z" />
</svg>