<svg xmlns="http://www.w3.org/2000/svg" id="olymp-weather-rain-drops-icon" viewBox="0 0 512 512">
    <path d="m62 171c21 45 38 89 38 103 0 21-17 38-38 38-20 0-37-17-37-38 0-14 17-58 37-103m0-59c0 0-62 126-62 162 0 35 28 63 62 63 35 0 63-28 63-63 0-36-63-162-63-162z m388-40c20 47 37 91 37 104 0 20-17 36-37 36-21 0-38-16-38-36 0-13 17-57 38-104m0-60c0 0-63 130-63 164 0 34 28 61 63 61 34 0 62-27 62-61 0-34-62-164-62-164z m-175 242c31 62 62 135 62 158 0 35-28 63-62 63-35 0-63-28-63-63 0-23 32-96 63-158m0-54c0 0-87 164-87 212 0 48 39 88 87 88 48 0 87-40 87-88 0-48-87-212-87-212z" />
</svg>